Coordinates
version=1
nRows=11
nColumns=42
inDegrees=yes

Units are S.I. units (second, meters, Newtons, ...)
If the header above contains a line with 'inDegrees', this indicates whether rotational values are in degrees (yes) or radians (no).

endheader
time	pelvis_tilt	pelvis_list	pelvis_rotation	pelvis_tx	pelvis_ty	pelvis_tz	hip_flexion_r	hip_adduction_r	hip_rotation_r	knee_angle_r	knee_adduction_r	knee_angle_r_beta	ankle_angle_r	subtalar_angle_r	mtp_angle_r	hip_flexion_l	hip_adduction_l	hip_rotation_l	knee_angle_l	knee_adduction_l	knee_angle_l_beta	ankle_angle_l	subtalar_angle_l	mtp_angle_l	lumbar_extension	lumbar_bending	lumbar_rotation	arm_flex_r	arm_add_r	arm_rot_r	elbow_flex_r	pro_sup_r	wrist_flex_r	wrist_dev_r	arm_flex_l	arm_add_l	arm_rot_l	elbow_flex_l	pro_sup_l	wrist_flex_l	wrist_dev_l
      3.00000000	      1.48819865	     -1.40786112	      5.03694833	      0.22377707	      0.85496367	      0.22106623	     31.34147556	      6.41148019	    -34.62096482	     34.02000608	    -21.84327716	      0.59376112	     11.49544696	     14.13818746	     -7.50001146	      6.28951695	     -0.53131995	    -10.30776361	     65.47438681	    -14.58105033	      1.14274363	      6.10218587	     -5.33779780	     -7.50001146	    -21.13765819	      1.97515670	     -2.56823415	      5.70163629	    -10.91999868	     11.08978557	     30.62736927	     90.00000001	      0.00000000	      0.00000000	     14.93229111	    -18.13406831	     11.62919537	     48.03503837	     90.00000001	      0.00000000	      0.00000000
      3.01000000	      1.27814424	     -1.38089911	      4.88414904	      0.23478298	      0.85660659	      0.22258803	     30.60913167	      6.44779896	    -35.36812824	     33.65667538	    -22.03270247	      0.58741980	     12.72913209	     16.45648910	     -7.50001082	      8.38661362	     -0.40602798	     -8.46505474	     68.65384021	    -12.93800865	      1.19823556	      3.54428783	    -12.80376175	     -7.50001082	    -20.99695871	      1.81252029	     -2.32121823	      6.28357841	    -11.11077679	     11.67537419	     30.82256763	     90.00000001	      0.00000000	      0.00000000	     14.51329548	    -17.92270161	     11.98434618	     46.24653235	     90.00000001	      0.00000000	      0.00000000
      3.02000000	      1.12226483	     -1.44972609	      4.74741397	      0.24574250	      0.85818935	      0.22411362	     29.76230786	      6.67562866	    -35.71206079	     33.28934198	    -22.01710449	      0.58100862	     13.57954284	     17.53589403	     -7.50001031	     10.51346164	     -0.58479689	     -7.62713282	     71.38183173	    -12.00977973	      1.24584799	      3.19743918	    -15.52544338	     -7.50001031	    -20.92794839	      1.75417294	     -2.10644035	      6.91723675	    -11.30319282	     12.03780920	     31.14911775	     90.00000001	      0.00000000	      0.00000000	     13.80430146	    -17.86076365	     12.27836170	     45.18887485	     90.00000001	      0.00000000	      0.00000000
      3.03000000	      1.04768717	     -1.54027638	      4.64091272	      0.25665023	      0.85981055	      0.22552514	     28.78246340	      7.01871484	    -35.77114970	     32.87359452	    -21.94000309	      0.57375246	     14.25533880	     17.66767131	     -7.50001012	     12.61376619	     -0.81986757	     -7.58213251	     73.67258911	    -11.82699022	      1.28582925	      3.61077838	    -16.28292808	     -7.50001012	    -20.95152185	      1.74025584	     -1.91242070	      7.56465821	    -11.42184729	     12.10057180	     31.53797030	     90.00000001	      0.00000000	      0.00000000	     12.94324772	    -17.85469191	     12.42178801	     44.46197127	     90.00000001	      0.00000000	      0.00000000
      3.04000000	      0.83971450	     -1.47916055	      4.61063944	      0.26719647	      0.86118434	      0.22666076	     28.02117796	      7.04688111	    -35.97703163	     32.58886917	    -21.87524775	      0.56878307	     15.22759796	     18.97552575	     -7.50000967	     14.84849485	     -0.62805354	     -5.60692236	     75.81999603	     -9.96994136	      1.32330857	      3.78741285	    -17.73644442	     -7.50000967	    -20.83857653	      1.54400637	     -1.70002842	      8.14947847	    -11.69319143	     12.51644017	     31.97273877	     90.00000001	      0.00000000	      0.00000000	     12.60509841	    -17.64472258	     12.87296603	     42.75542372	     90.00000001	      0.00000000	      0.00000000
      3.05000000	      0.82630733	     -1.45409916	      4.54607192	      0.27785566	      0.86274705	      0.22764462	     26.96524964	      7.16586128	    -35.85439699	     32.28450067	    -21.61288005	      0.56347083	     15.67503441	     18.94603277	     -7.50000952	     16.90730715	     -0.55314828	     -5.43867414	     77.40884872	     -9.77758742	      1.35103928	      4.32054550	    -17.81225241	     -7.50000952	    -20.93760871	      1.44280656	     -1.52293073	      8.85187714	    -11.86077726	     12.52454966	     32.42469333	     90.00000001	      0.00000000	      0.00000000	     11.82018474	    -17.62937393	     12.98655254	     42.20330276	     90.00000001	      0.00000000	      0.00000000
      3.06000000	      0.53729301	     -1.37322266	      4.47352228	      0.28823924	      0.86373383	      0.22863739	     26.34313768	      7.16559034	    -36.19149733	     31.96965529	    -21.68500798	      0.55797575	     16.79126477	     20.54815852	     -7.50000908	     19.17784034	     -0.25787555	     -2.81018848	     78.82965519	     -7.19630161	      1.37583703	      5.26412667	    -18.24066513	     -7.50000908	    -20.71682250	      1.21667604	     -1.22944386	      9.29421115	    -12.20512786	     13.02964879	     33.03130981	     90.00000001	      0.00000000	      0.00000000	     11.49615647	    -17.36167586	     13.49882805	     40.28698201	     90.00000001	      0.00000000	      0.00000000
      3.07000000	      0.43740459	     -1.28222117	      4.35047298	      0.29874232	      0.86486985	      0.22949437	     25.45173991	      7.15496404	    -36.57110154	     31.55813495	    -21.71615423	      0.55079336	     17.53271088	     21.95625529	     -7.50000854	     21.22108903	      0.02832912	     -1.48922429	     79.74145033	     -5.81761094	      1.39175086	      5.96923276	    -18.30046280	     -7.50000854	    -20.69011576	      1.02354494	     -0.93680760	      9.81900160	    -12.61004241	     13.57415730	     33.74833633	     90.00000001	      0.00000000	      0.00000000	     10.90411224	    -17.23965410	     13.89372282	     39.14708136	     90.00000001	      0.00000000	      0.00000000
      3.08000000	      0.39790580	     -1.14109245	      4.13675181	      0.30927841	      0.86602782	      0.23021983	     24.44946379	      7.15354998	    -36.46757106	     31.22132825	    -21.55656140	      0.54491497	     17.89698691	     21.85459266	     -7.50000842	     23.15187725	      0.34352841	     -1.40692400	     80.13675274	     -5.52645985	      1.39865019	      6.35389032	    -18.16852362	     -7.50000842	    -20.75349174	      0.79918234	     -0.65127239	     10.52685342	    -12.92912938	     13.51932743	     34.19297526	     90.00000001	      0.00000000	      0.00000000	      9.97354114	    -17.11410802	     13.98217448	     38.71408335	     90.00000001	      0.00000000	      0.00000000
      3.09000000	      0.29514185	     -1.04132214	      3.87722948	      0.31988505	      0.86674451	      0.23109107	     23.61518061	      7.07671362	    -37.23139603	     30.80004520	    -21.77909965	      0.53756220	     19.19203015	     24.52622526	     -7.50000802	     24.99382477	      0.67592246	      0.57621702	     80.34039228	     -3.41286848	      1.40220437	      7.24055923	    -18.33290407	     -7.50000802	    -20.64804321	      0.58479358	     -0.19461012	     10.88769211	    -13.37646337	     14.04298418	     35.22787236	     90.00000001	      0.00000000	      0.00000000	      9.51984612	    -16.84267568	     14.14951692	     37.11057694	     90.00000001	      0.00000000	      0.00000000
      3.10000000	      0.32255879	     -0.92906578	      3.52243754	      0.33063197	      0.86760190	      0.23191183	     22.56171238	      7.07279201	    -37.57443163	     30.34181506	    -21.84409831	      0.52956457	     20.07489707	     26.10585717	     -7.50000769	     26.61624637	      0.91252258	      1.04665991	     80.03338597	     -2.63695745	      1.39684610	      7.85342606	    -18.28045665	     -7.50000769	    -20.70126309	      0.37247292	      0.27419778	     11.37817733	    -13.84590063	     14.37665321	     36.07993353	     90.00000001	      0.00000000	      0.00000000	      8.72815076	    -16.62312922	     14.15690874	     36.27819296	     90.00000001	      0.00000000	      0.00000000
